<svg xmlns="http://www.w3.org/2000/svg" viewBox="0 0 640 640"><!--!Font Awesome Pro 7.2.0 by @fontawesome - https://fontawesome.com License - https://fontawesome.com/license (Commercial License) Copyright 2026 Fonticons, Inc.--><path opacity=".4" fill="#e91e63" d="M128 128l0 384 384 0 0-384L128 128zm-64 0c0-35.3 28.7-64 64-64l384 0c35.3 0 64 28.7 64 64l0 384c0 35.3-28.7 64-64 64L128 576c-35.3 0-64-28.7-64-64L64 128z"/><path fill="#e91e63" d="M176 288l96 0c8.8 0 16 7.2 16 16l0 96c0 8.8-7.2 16-16 16l-96 0c-8.8 0-16-7.2-16-16l0-96c0-8.8 7.2-16 16-16zm128-64l160 0c8.8 0 16 7.2 16 16l0 160c0 8.8-7.2 16-16 16l-64 0 0-48 48 0 0-128-128 0 0 48-48 0 0-48c0-8.8 7.2-16 16-16z"/></svg>
